<svg fill="none" version="1.0" xmlns="http://www.w3.org/2000/svg"
 width="250.000000pt" height="239.000000pt" viewBox="0 0 250.000000 239.000000"
 preserveAspectRatio="xMidYMid meet">

 <div class="bwsvg">
<g transform="translate(0.000000,239.000000) scale(0.100000,-0.100000)"
fill="#000000" stroke="none">
<path d="M1017 2240 c-63 -16 -115 -48 -174 -107 -61 -62 -78 -93 -88 -168 -4
-27 -12 -55 -17 -62 -16 -19 -31 -199 -20 -230 10 -26 11 -24 11 22 2 72 21
37 21 -39 0 -53 -1 -57 -16 -45 -15 13 -16 11 -11 -21 4 -19 10 -55 13 -80 3
-25 10 -49 15 -54 5 -6 9 -20 9 -32 0 -13 14 -36 31 -52 l31 -29 -23 -23 c-28
-26 -93 -56 -144 -66 -19 -3 -51 -19 -71 -35 -20 -16 -54 -34 -75 -39 -22 -6
-54 -24 -72 -39 -17 -16 -48 -35 -68 -44 -95 -39 -156 -160 -219 -427 -31
-133 -32 -140 -33 -402 l-2 -268 43 0 42 0 -15 36 c-26 63 -20 98 22 132 21
16 64 39 95 50 131 49 333 45 353 -5 4 -12 11 -7 26 21 11 21 32 49 47 62 26
24 32 25 116 20 49 -4 94 -10 101 -16 6 -5 14 -7 17 -5 3 3 30 8 59 10 30 2
81 11 114 20 35 8 108 15 175 16 63 0 158 7 210 14 239 35 404 48 465 38 69
-12 79 -9 63 17 -7 10 -16 16 -20 14 -7 -5 -12 10 -9 29 0 4 -3 7 -9 7 -5 0
-10 -8 -10 -17 0 -14 -2 -15 -9 -4 -5 8 -18 12 -30 8 -36 -9 -24 19 17 36 80
35 194 48 208 25 3 -5 9 -6 14 -3 12 8 19 -7 29 -62 7 -36 6 -54 -6 -76 -8
-16 -17 -26 -20 -23 -4 3 -12 -3 -20 -13 -7 -11 -21 -18 -30 -16 -10 1 -29 -4
-41 -12 -28 -17 -72 -10 -72 12 0 24 -20 17 -21 -7 -1 -13 -3 -38 -5 -57 -2
-19 1 -40 7 -47 6 -7 8 -17 5 -23 -3 -5 -1 -11 5 -13 6 -2 -8 -21 -31 -42 -39
-35 -41 -40 -30 -62 7 -12 16 -22 19 -21 4 1 17 -8 31 -21 23 -21 32 -22 125
-20 l100 3 25 45 c23 42 25 55 25 175 0 152 -10 199 -91 415 -70 187 -152 351
-209 420 -25 30 -61 76 -80 102 -38 50 -86 75 -164 85 -25 3 -54 13 -64 21
-12 11 -41 17 -88 18 -55 1 -75 6 -92 21 -14 13 -43 23 -79 28 -43 5 -62 12
-73 28 -8 11 -11 24 -6 27 5 3 12 24 14 47 3 23 14 59 26 80 36 67 59 189 60
306 0 102 -2 111 -32 168 -36 67 -123 175 -149 184 -10 4 -18 13 -18 20 0 38
-147 66 -233 45z m239 -84 c33 -20 83 -89 114 -159 21 -45 26 -97 11 -97 -5 0
-13 -9 -16 -21 -5 -14 -12 -18 -23 -14 -10 4 -42 13 -74 21 -53 14 -58 14 -92
-6 -47 -26 -62 -25 -110 4 -36 22 -46 23 -152 18 l-114 -5 6 49 c9 65 28 101
83 152 58 54 92 72 161 86 66 13 159 1 206 -28z m-261 -276 c18 -7 18 -8 -8
-15 -34 -9 -119 3 -112 16 7 11 92 11 120 -1z m-158 -32 c-3 -8 -6 -5 -6 6 -1
11 2 17 5 13 3 -3 4 -12 1 -19z m-12 -68 c4 -13 15 -18 40 -17 21 1 30 4 22 9
-9 6 -9 10 3 19 12 8 10 9 -7 4 -17 -5 -23 -2 -23 9 0 13 5 14 26 6 14 -6 30
-7 36 -4 13 9 148 12 148 4 0 -3 -7 -16 -16 -28 -13 -18 -25 -22 -72 -22 -31
0 -62 -4 -69 -8 -7 -4 20 -6 60 -4 67 3 74 5 103 38 17 19 38 34 46 34 8 0 23
-22 35 -49 l20 -48 -34 -12 c-18 -7 -41 -10 -51 -7 -25 8 -57 -17 -49 -38 5
-12 13 -15 28 -11 18 6 20 4 14 -14 -5 -17 -2 -21 14 -21 12 0 21 -4 21 -9 0
-5 -19 -9 -42 -9 -96 -1 -133 -7 -136 -25 -4 -20 22 -23 65 -6 32 12 146 2
137 -12 -3 -5 2 -9 11 -9 8 0 18 -7 21 -15 4 -9 14 -14 23 -13 15 3 18 -12 12
-79 -1 -15 -101 -76 -102 -63 -1 6 -3 15 -4 20 -1 6 -3 15 -4 20 0 6 -8 10
-16 10 -8 0 -14 -3 -13 -7 0 -5 -2 -16 -7 -26 -7 -17 -9 -17 -26 -1 -11 9 -19
13 -19 9 0 -4 -9 0 -19 9 -11 10 -24 15 -30 12 -5 -3 -19 5 -30 20 -11 14 -24
23 -30 20 -22 -14 -71 31 -110 101 -35 62 -41 82 -41 131 0 31 5 74 11 95 10
37 11 38 29 22 11 -10 22 -26 25 -35z m22 18 c-3 -8 -6 -5 -6 6 -1 11 2 17 5
13 3 -3 4 -12 1 -19z m374 -44 c19 -15 26 -24 16 -20 -10 3 -25 6 -32 6 -8 0
-19 9 -25 20 -15 27 -1 25 41 -6z m98 -62 c42 -21 47 -33 24 -60 -17 -19 -21
-20 -55 -8 -20 7 -44 21 -53 30 -9 9 -20 16 -25 16 -11 0 -21 30 -14 42 8 12
79 1 123 -20z m38 22 c-3 -3 -12 -4 -19 -1 -8 3 -5 6 6 6 11 1 17 -2 13 -5z
m-219 -105 c-3 -8 -7 -3 -11 10 -4 17 -3 21 5 13 5 -5 8 -16 6 -23z m155 -74
c7 -16 -8 -29 -23 -20 -10 6 -2 35 10 35 4 0 10 -7 13 -15z m-468 -265 c3 -5
13 -10 22 -10 24 0 53 -30 53 -55 0 -14 19 -42 46 -69 25 -26 44 -50 41 -52
-10 -10 -72 28 -115 70 -45 42 -86 109 -75 120 9 9 21 7 28 -4z m505 -45 c0
-31 -92 -147 -105 -133 -12 11 42 114 66 125 27 13 39 15 39 8z m-315 -145 c3
-5 1 -10 -4 -10 -6 0 -11 5 -11 10 0 6 2 10 4 10 3 0 8 -4 11 -10z m180 0
c-11 -5 -27 -9 -35 -9 -13 -1 -13 0 0 9 8 5 24 9 35 9 l20 0 -20 -9z m242
-352 c-3 -8 -6 -5 -6 6 -1 11 2 17 5 13 3 -3 4 -12 1 -19z m-32 -54 c-11 -9
-43 -27 -72 -40 -49 -22 -76 -44 -53 -44 6 0 39 15 73 32 82 43 84 44 67 23
-8 -10 -56 -38 -107 -62 -51 -24 -99 -50 -107 -58 -12 -12 -14 -10 -18 22 -4
31 0 38 26 55 17 10 61 28 98 39 37 11 72 27 79 35 6 8 17 14 23 14 6 0 2 -8
-9 -16z m441 -109 c2 -10 -5 -30 -15 -44 -9 -14 -25 -45 -35 -68 -19 -43 -50
-61 -73 -41 -9 7 -17 7 -28 -2 -12 -10 -15 -9 -15 7 0 10 7 28 15 39 8 10 24
38 34 62 14 30 26 42 41 42 12 0 28 7 37 15 19 19 35 15 39 -10z m-589 -57
c-3 -8 -6 -5 -6 6 -1 11 2 17 5 13 3 -3 4 -12 1 -19z m-30 -10 c-3 -8 -6 -5
-6 6 -1 11 2 17 5 13 3 -3 4 -12 1 -19z m646 2 c5 -18 -15 -50 -30 -50 -4 0
-3 3 0 7 4 3 2 12 -4 19 -14 17 -5 44 15 44 7 0 16 -9 19 -20z m-684 -60 c6
-20 11 -49 11 -64 0 -38 -40 -35 -74 5 -26 31 -35 69 -16 69 6 0 10 -5 10 -12
0 -16 41 -58 57 -58 15 0 18 26 3 35 -5 3 -10 15 -10 25 0 11 -9 24 -20 30
-29 15 -25 32 4 19 14 -7 28 -26 35 -49z m-79 30 c0 -5 -4 -10 -10 -10 -5 0
-10 5 -10 10 0 6 5 10 10 10 6 0 10 -4 10 -10z m122 -52 c-6 -6 -7 0 -4 19 5
21 7 23 10 9 2 -10 0 -22 -6 -28z m-429 25 c-7 -2 -21 -2 -30 0 -10 3 -4 5 12
5 17 0 24 -2 18 -5z m47 -62 c3 -2 -5 -1 -18 2 -16 4 -25 0 -30 -11 -5 -13 -8
-10 -12 13 -9 43 -1 50 29 23 14 -13 28 -25 31 -27z m683 35 c9 -7 17 -19 17
-27 -1 -10 -4 -9 -11 4 -13 23 -29 22 -29 -3 0 -11 -4 -20 -10 -20 -5 0 -10
14 -10 30 0 32 14 38 43 16z m297 4 c0 -5 -9 -10 -21 -10 -11 0 -17 5 -14 10
3 6 13 10 21 10 8 0 14 -4 14 -10z m-927 -14 c6 -16 -2 -28 -14 -20 -12 7 -11
34 0 34 5 0 11 -6 14 -14z m548 -7 c16 -11 27 -25 24 -29 -3 -5 -15 0 -26 11
-16 16 -23 18 -35 8 -11 -9 -14 -8 -14 10 0 27 14 27 51 0z m-717 -76 c-25
-18 -26 -12 -12 42 l13 47 8 -38 c6 -31 4 -41 -9 -51z m620 62 c-9 -14 -20
-25 -25 -25 -5 0 -2 11 7 25 9 14 20 25 25 25 5 0 2 -11 -7 -25z m-674 -10
c-7 -9 -15 -13 -17 -11 -7 7 7 26 19 26 6 0 6 -6 -2 -15z m1377 -121 c-3 -3
-12 -4 -19 -1 -8 3 -5 6 6 6 11 1 17 -2 13 -5z"/>
<path d="M930 1790 c-12 -8 -9 -10 12 -10 15 0 30 5 33 10 8 13 -25 13 -45 0z"/>
<path d="M915 1616 c-14 -10 -15 -15 -6 -21 8 -4 19 -1 28 8 20 19 1 30 -22
13z"/>
<path d="M1110 1540 c-13 -8 -12 -10 3 -10 9 0 17 5 17 10 0 12 -1 12 -20 0z"/>
<path d="M1100 1500 c0 -5 9 -8 20 -7 21 1 18 10 -5 13 -8 1 -15 -2 -15 -6z"/>
<path d="M725 340 c-3 -5 -1 -10 4 -10 6 0 11 5 11 10 0 6 -2 10 -4 10 -3 0
-8 -4 -11 -10z"/>
<path d="M1285 213 c-5 -12 -9 -14 -12 -6 -3 10 -10 10 -24 2 -15 -7 -24 -7
-35 2 -11 9 -14 7 -14 -10 0 -12 -6 -21 -12 -20 -31 4 -41 -1 -29 -14 8 -10 7
-14 -2 -15 -6 -1 -32 -6 -57 -11 -163 -36 -278 -45 -330 -27 -16 5 -21 5 -15
-1 6 -5 49 -22 98 -38 88 -28 106 -38 87 -50 -6 -4 -8 -10 -5 -15 6 -9 495
-14 495 -5 0 8 -94 95 -102 95 -4 0 -5 20 -1 45 6 44 -8 64 -21 30 -3 -8 -10
-15 -16 -15 -14 0 -13 33 2 48 6 6 9 14 6 17 -3 3 -9 -2 -13 -12z"/>
<path d="M1466 171 c-4 -7 -5 -15 -2 -18 9 -9 19 4 14 18 -4 11 -6 11 -12 0z"/>
<path d="M603 163 c11 -17 85 -46 103 -39 27 10 2 28 -45 32 -23 2 -46 6 -53
10 -6 4 -8 3 -5 -3z"/>
<path d="M645 10 c3 -5 8 -10 11 -10 2 0 4 5 4 10 0 6 -5 10 -11 10 -5 0 -7
-4 -4 -10z"/>
</g>
 </div>
</svg>
